<svg id="Layer_1" data-name="Layer 1" xmlns="http://www.w3.org/2000/svg" xmlns:xlink="http://www.w3.org/1999/xlink" viewBox="0 0 340.91 31"><defs><style>.cls-1,.cls-2{isolation:isolate;}.cls-2{font-size:24px;font-family:HKGrotesk-Medium, HK Grotesk;font-weight:500;}.cls-3{letter-spacing:-0.01em;}.cls-4{letter-spacing:0em;}.cls-5{letter-spacing:0.01em;}.cls-6{letter-spacing:0.02em;}.cls-7{fill:#fff05a;}.cls-8{fill:#6207ff;}.cls-9{fill:url(#linear-gradient);}</style><linearGradient id="linear-gradient" x1="7016.5" y1="9249.1" x2="7014.91" y2="9250.47" gradientTransform="matrix(12, 0, 0, -12, -84178.03, 111018.5)" gradientUnits="userSpaceOnUse"><stop offset="0" stop-color="#ff0054"/><stop offset="1" stop-color="#fff05a"/></linearGradient><symbol id="tjn-logo" data-name="tjn-logo" viewBox="0 0 340.92 31"><g id="Group_9953" data-name="Group 9953"><g id="Title_TAG:H6_" data-name="Title TAG:H6 " class="cls-1"><text class="cls-2" transform="translate(39 24)">TES<tspan class="cls-3" x="43.25" y="0">S</tspan><tspan x="56.71" y="0">A J</tspan><tspan class="cls-4" x="92.54" y="0">O</tspan><tspan x="110.76" y="0">SE</tspan><tspan class="cls-5" x="139.41" y="0">P</tspan><tspan x="153.74" y="0">H-NICHO</tspan><tspan class="cls-6" x="259.46" y="0">L</tspan><tspan class="cls-3" x="272.76" y="0">A</tspan><tspan x="288.26" y="0">S</tspan></text></g><g id="Component_294_1" data-name="Component 294 1"><path id="Rectangle_2378" data-name="Rectangle 2378" class="cls-7" d="M20,0h0A13,13,0,0,1,33,13h0A13,13,0,0,1,20,26h0A13,13,0,0,1,7,13H7A13,13,0,0,1,20,0Z"/><rect id="Rectangle_2374" data-name="Rectangle 2374" class="cls-8" x="4" y="8" width="9" height="9" rx="2"/><rect id="Rectangle_2376" data-name="Rectangle 2376" class="cls-9" x="9" y="19" width="12" height="12" rx="2"/><rect id="Rectangle_2377" data-name="Rectangle 2377" y="19" width="7" height="7" rx="1"/></g></g></symbol></defs><use width="340.91" height="31" xlink:href="#tjn-logo"/></svg>